<?xml version="1.0" encoding="UTF-8" standalone="no"?>
<!DOCTYPE svg PUBLIC "-//W3C//DTD SVG 1.1//EN" "http://www.w3.org/Graphics/SVG/1.1/DTD/svg11.dtd">
<svg width="100%" height="100%" viewBox="0 0 310 310" version="1.1" xmlns="http://www.w3.org/2000/svg" xmlns:xlink="http://www.w3.org/1999/xlink" xml:space="preserve" xmlns:serif="http://www.serif.com/" style="fill-rule:evenodd;clip-rule:evenodd;stroke-linejoin:round;stroke-miterlimit:1.41421;">
    <path d="M185,65C152.085,65 125,92.085 125,125L185,125L185,65ZM125,245C157.915,245 185,217.915 185,185L125,185L125,245ZM95,125C111.458,125 125,138.542 125,155C125,171.458 111.458,185 95,185C78.542,185 65,171.458 65,155C65,138.542 78.542,125 95,125ZM155,125C171.458,125 185,138.542 185,155C185,171.458 171.458,185 155,185C138.542,185 125,171.458 125,155C125,138.542 138.542,125 155,125ZM215,125C231.458,125 245,138.542 245,155C245,171.458 231.458,185 215,185C198.542,185 185,171.458 185,155C185,138.542 198.542,125 215,125" style="fill:white;fill-rule:nonzero;"/>
    <path d="M125,65C157.915,65 185,92.085 185,125L125,125L125,65ZM185,245C152.085,245 125,217.915 125,185L185,185L185,245ZM65,65C97.915,65 125,92.085 125,125L65,125L65,65ZM65,245C97.915,245 125,217.915 125,185L65,185L65,245ZM245,65C212.085,65 185,92.085 185,125L245,125L245,65ZM245,245C212.085,245 185,217.915 185,185L245,185L245,245Z" style="fill:white;fill-rule:nonzero;"/>
</svg>
